<svg width="21" height="20" viewBox="0 0 21 20" fill="none" xmlns="http://www.w3.org/2000/svg">
<g clip-path="url(#clip0_208_16)">
<path d="M8.30513 15.8334C4.13847 17.0834 4.13847 13.75 2.4718 13.3334M14.1385 18.3334V15.1084C14.1697 14.711 14.116 14.3115 13.981 13.9365C13.8459 13.5615 13.6326 13.2195 13.3551 12.9334C15.9718 12.6417 18.7218 11.65 18.7218 7.10003C18.7216 5.93655 18.274 4.81769 17.4718 3.97503C17.8517 2.95712 17.8248 1.83199 17.3968 0.833363C17.3968 0.833363 16.4135 0.541696 14.1385 2.0667C12.2285 1.54905 10.2151 1.54905 8.30513 2.0667C6.03013 0.541696 5.0468 0.833363 5.0468 0.833363C4.61878 1.83199 4.59192 2.95712 4.9718 3.97503C4.16357 4.82395 3.71557 5.95291 3.7218 7.12503C3.7218 11.6417 6.4718 12.6334 9.08847 12.9584C8.8143 13.2417 8.60285 13.5795 8.46789 13.95C8.33293 14.3204 8.27747 14.7151 8.30513 15.1084V18.3334" stroke="#F4F4F2" stroke-width="1.76623" stroke-linecap="round" stroke-linejoin="round"/>
</g>
<defs>
<clipPath id="clip0_208_16">
<rect width="20" height="20" fill="white" transform="translate(0.805176)"/>
</clipPath>
</defs>
</svg>
