<svg width="21" height="20" viewBox="0 0 21 20" fill="none" xmlns="http://www.w3.org/2000/svg">
<path d="M13.736 6.66663C15.062 6.66663 16.3338 7.19341 17.2715 8.13109C18.2092 9.06877 18.736 10.3405 18.736 11.6666V17.5H15.4026V11.6666C15.4026 11.2246 15.227 10.8007 14.9145 10.4881C14.6019 10.1756 14.178 9.99996 13.736 9.99996C13.2939 9.99996 12.87 10.1756 12.5575 10.4881C12.2449 10.8007 12.0693 11.2246 12.0693 11.6666V17.5H8.73596V11.6666C8.73596 10.3405 9.26275 9.06877 10.2004 8.13109C11.1381 7.19341 12.4099 6.66663 13.736 6.66663V6.66663Z" stroke="#F4F4F2" stroke-width="1.76623" stroke-linecap="round" stroke-linejoin="round"/>
<path d="M5.40255 7.5H2.06921V17.5H5.40255V7.5Z" stroke="#F4F4F2" stroke-width="1.76623" stroke-linecap="round" stroke-linejoin="round"/>
<path d="M3.73588 4.99996C4.65636 4.99996 5.40255 4.25377 5.40255 3.33329C5.40255 2.41282 4.65636 1.66663 3.73588 1.66663C2.81541 1.66663 2.06921 2.41282 2.06921 3.33329C2.06921 4.25377 2.81541 4.99996 3.73588 4.99996Z" stroke="#F4F4F2" stroke-width="1.76623" stroke-linecap="round" stroke-linejoin="round"/>
</svg>
